<svg width="180" height="180" viewBox="0 0 180 180" fill="none" xmlns="http://www.w3.org/2000/svg">
  <!-- Blue rounded background matching primary color -->
  <rect width="180" height="180" rx="30" fill="#3b82f6"/>
  
  <!-- White rocket icon -->
  <g transform="translate(90,90)">
    <!-- Rocket body -->
    <path d="M-15 -30 L15 -30 L20 10 L10 30 L-10 30 L-20 10 Z" fill="white"/>
    <!-- Rocket tip -->
    <path d="M-5 -40 L5 -40 L0 -30 Z" fill="white"/>
    <!-- Rocket flames -->
    <path d="M-10 30 L-5 45 L0 35 L5 45 L10 30" fill="white"/>
    <!-- Rocket windows -->
    <circle cx="0" cy="-10" r="4" fill="#3b82f6"/>
    <circle cx="0" cy="5" r="3" fill="#3b82f6"/>
    <!-- Side fins -->
    <path d="M-20 0 L-25 10 L-20 15 Z" fill="white"/>
    <path d="M20 0 L25 10 L20 15 Z" fill="white"/>
    <!-- Detail lines -->
    <line x1="-8" y1="-20" x2="8" y2="-20" stroke="#3b82f6" stroke-width="1"/>
    <line x1="-6" y1="-5" x2="6" y2="-5" stroke="#3b82f6" stroke-width="1"/>
  </g>
</svg>
