<svg width="48" height="48" viewBox="0 0 48 48" fill="none" xmlns="http://www.w3.org/2000/svg">
  <!-- Blue rounded background matching primary color -->
  <rect width="48" height="48" rx="8" fill="#3b82f6"/>
  
  <!-- White rocket icon -->
  <g transform="translate(24,24)">
    <!-- Rocket body -->
    <path d="M-4.5 -9 L4.5 -9 L6 3 L3 9 L-3 9 L-6 3 Z" fill="white"/>
    <!-- Rocket tip -->
    <path d="M-1.5 -12 L1.5 -12 L0 -9 Z" fill="white"/>
    <!-- Rocket flames -->
    <path d="M-3 9 L-1.5 13.5 L0 10.5 L1.5 13.5 L3 9" fill="white"/>
    <!-- Rocket windows -->
    <circle cx="0" cy="-3" r="1.2" fill="#3b82f6"/>
    <circle cx="0" cy="2" r="1" fill="#3b82f6"/>
    <!-- Side fins -->
    <path d="M-6 0 L-7.5 3 L-6 4.5 Z" fill="white"/>
    <path d="M6 0 L7.5 3 L6 4.5 Z" fill="white"/>
    <!-- Detail lines -->
    <line x1="-3" y1="-6" x2="3" y2="-6" stroke="#3b82f6" stroke-width="0.5"/>
    <line x1="-2" y1="0" x2="2" y2="0" stroke="#3b82f6" stroke-width="0.5"/>
  </g>
</svg>
